<svg viewBox="0 0 18 18" xmlns="http://www.w3.org/2000/svg"><g transform="translate(2,0)"><path d="M1.173 16.894H12.84V11.28c-.027.018-.049.029-.065.044l-.505.48-.33.308c-.292.276-.585.551-.876.829-.245.233-.488.468-.733.702-.079.074-.162.144-.243.216-.087-.078-.177-.156-.263-.236-.138-.128-.273-.257-.41-.386l-.85-.803a374.74 374.74 0 0 1-.41-.386c-.289-.273-.578-.545-.866-.819-.224-.212-.447-.426-.67-.64l-.027-.02c-.044.036-.086.066-.123.101-.14.13-.277.26-.416.391l-.844.797-.84.793-.42.396c-.24.228-.478.458-.717.686-.048.046-.1.087-.148.129l-.401-.371c-.138-.128-.274-.257-.41-.386l-.531-.505-.537-.51c-.008-.008-.018-.013-.033-.023v4.827zM0 18V9.397c.086.077.173.154.258.232l.41.386.85.803a190.675 190.675 0 0 1 .93.88l.61.583a.239.239 0 0 0 .133-.068l.42-.395.42-.397.42-.396.844-.797c.139-.13.277-.26.415-.392.24-.228.477-.457.717-.686.053-.05.11-.096.164-.143l.815.76.403.38.846.798.42.396c.25.24.498.48.749.718.087.083.178.16.267.24l.678-.63c.09-.083 1.165-1.119 3.226-3.106.003 4.357.004 7.475.004 9.355V18H0zM0 0h10.52c.077.081.155.163.234.243l.42.421.425.427.415.415.845.847.415.415c.227.23.454.46.679.692a.18.18 0 0 1 .045.114c.002.945 0 2.084-.003 3.417a1375.51 1375.51 0 0 1-3.906 4.008l-.69-.681-.404-.404-.845-.847-.414-.415-.548-.553-.574-.58a.387.387 0 0 0-.149.097l-.41.41c-.14.142-.283.284-.425.426l-.42.42-.42.42-.42.422-.419.42-.69.701c-.057.058-.118.111-.175.165l-.84-.834-.39-.388-.86-.863C.748 8.663.501 8.41.252 8.159.171 8.076.084 7.999 0 7.918V0zm3.19 9.255l.84-.84.42-.421.845-.847c.138-.138.277-.275.415-.415l.69-.7c.063-.064.128-.122.191-.182.131.128.26.253.388.38.138.136.274.273.41.41l.85.851.41.41 1.163 1.177c.09.091.186.178.278.267a918.82 918.82 0 0 0 2.687-2.69c.01-.01.02-.017.027-.027.015-.023.039-.048.039-.072.002-.84.002-1.678.001-2.517 0-.022-.005-.05-.018-.063-.154-.154-.312-.305-.467-.458-.144-.143-.287-.288-.43-.432a201.187 201.187 0 0 0-.835-.836l-.42-.42c-.2-.203-.401-.405-.6-.61a.159.159 0 0 0-.124-.052H1.175l-.004.04V7.38a.14.14 0 0 0 .038.086c.097.1.198.196.297.295.285.285.57.57.855.858.233.234.464.47.696.706l.025.022c.04-.033.076-.06.108-.092z" fill="#717171"/></g></svg>
