<svg viewBox="0 0 25 23" xmlns="http://www.w3.org/2000/svg"><defs><path d="M6.018 0a3 3 0 0 0-3 3h3V0zm9 0h-3v3h3V0zm6 0v3h3a3 3 0 0 0-3-3zm-10.5 0h-3v3h3V0zm9 0h-3v3h3V0zm1.5 7.5h3v-3h-3v3zm0 9a3 3 0 0 0 3-3h-3v3zm0-4.5h3V9h-3v3zm-.661-3.25a3 3 0 0 0-4.178-.739l-5.752 4.247-2.952-2.07c.023-.145.038-.291.043-.438a3.732 3.732 0 0 0-1.5-2.984V4.5h-3v1.575a3.75 3.75 0 1 0 2.937 6.711l1.863 1.303-2.1 1.473a3.741 3.741 0 1 0 1.725 2.45l12.914-9.263zM3.768 11.624a1.875 1.875 0 1 1 0-3.75 1.875 1.875 0 0 1 0 3.75zm0 9a1.875 1.875 0 1 1 0-3.75 1.875 1.875 0 0 1 0 3.75zm8.1-3.643l4.526 3.45a3 3 0 0 0 4.177-.738l-6.093-4.544-2.61 1.832z" id="a"/></defs><use fill="#4a4a4a" href="#a"/></svg>
